%TF.GenerationSoftware,KiCad,Pcbnew,10.0.0*%
%TF.CreationDate,2026-05-07T08:19:39-04:00*%
%TF.ProjectId,Pathfinder,50617468-6669-46e6-9465-722e6b696361,rev?*%
%TF.SameCoordinates,Original*%
%TF.FileFunction,Copper,L1,Top*%
%TF.FilePolarity,Positive*%
%FSLAX46Y46*%
G04 Gerber Fmt 4.6, Leading zero omitted, Abs format (unit mm)*
G04 Created by KiCad (PCBNEW 10.0.0) date 2026-05-07 08:19:39*
%MOMM*%
%LPD*%
G01*
G04 APERTURE LIST*
G04 Aperture macros list*
%AMRoundRect*
0 Rectangle with rounded corners*
0 $1 Rounding radius*
0 $2 $3 $4 $5 $6 $7 $8 $9 X,Y pos of 4 corners*
0 Add a 4 corners polygon primitive as box body*
4,1,4,$2,$3,$4,$5,$6,$7,$8,$9,$2,$3,0*
0 Add four circle primitives for the rounded corners*
1,1,$1+$1,$2,$3*
1,1,$1+$1,$4,$5*
1,1,$1+$1,$6,$7*
1,1,$1+$1,$8,$9*
0 Add four rect primitives between the rounded corners*
20,1,$1+$1,$2,$3,$4,$5,0*
20,1,$1+$1,$4,$5,$6,$7,0*
20,1,$1+$1,$6,$7,$8,$9,0*
20,1,$1+$1,$8,$9,$2,$3,0*%
G04 Aperture macros list end*
%TA.AperFunction,ComponentPad*%
%ADD10C,1.815000*%
%TD*%
%TA.AperFunction,ComponentPad*%
%ADD11R,1.815000X1.815000*%
%TD*%
%TA.AperFunction,ComponentPad*%
%ADD12C,2.200000*%
%TD*%
%TA.AperFunction,SMDPad,CuDef*%
%ADD13RoundRect,0.152400X-1.063600X-0.609600X1.063600X-0.609600X1.063600X0.609600X-1.063600X0.609600X0*%
%TD*%
%TA.AperFunction,ComponentPad*%
%ADD14C,1.524000*%
%TD*%
%TA.AperFunction,SMDPad,CuDef*%
%ADD15RoundRect,0.152400X1.063600X0.609600X-1.063600X0.609600X-1.063600X-0.609600X1.063600X-0.609600X0*%
%TD*%
%TA.AperFunction,ComponentPad*%
%ADD16C,1.400000*%
%TD*%
%TA.AperFunction,Conductor*%
%ADD17C,0.200000*%
%TD*%
G04 APERTURE END LIST*
D10*
%TO.P,D1,A*%
%TO.N,Net-(D1-PadA)*%
X110580000Y-79460000D03*
D11*
%TO.P,D1,C*%
%TO.N,GND*%
X108040000Y-79460000D03*
%TD*%
D12*
%TO.P,SW1,1,1_1*%
%TO.N,button1*%
X131810000Y-152050000D03*
%TO.P,SW1,2,2_2*%
%TO.N,GND*%
X125460000Y-154590000D03*
%TD*%
D10*
%TO.P,D2,A*%
%TO.N,Net-(D2-PadA)*%
X129650000Y-61520000D03*
D11*
%TO.P,D2,C*%
%TO.N,GND*%
X129650000Y-58980000D03*
%TD*%
D12*
%TO.P,SW3,1,1_1*%
%TO.N,button3*%
X131820000Y-110630000D03*
%TO.P,SW3,2,2_2*%
%TO.N,GND*%
X125470000Y-113170000D03*
%TD*%
%TO.P,SW2,1,1_1*%
%TO.N,button2*%
X131840000Y-131470000D03*
%TO.P,SW2,2,2_2*%
%TO.N,GND*%
X125490000Y-134010000D03*
%TD*%
D13*
%TO.P,U1,1,P26_A0_D0_1*%
%TO.N,button1*%
X137996000Y-100112500D03*
D14*
X137161000Y-100112500D03*
D13*
%TO.P,U1,2,P27_A1_D1_2*%
%TO.N,button2*%
X137996000Y-97572500D03*
D14*
X137161000Y-97572500D03*
D13*
%TO.P,U1,3,P28_A2_D2_3*%
%TO.N,button3*%
X137996000Y-95032500D03*
D14*
X137161000Y-95032500D03*
D13*
%TO.P,U1,4,P29_A3_D3_4*%
%TO.N,LED1*%
X137996000Y-92492500D03*
D14*
X137161000Y-92492500D03*
D13*
%TO.P,U1,5,P6_SDA_D4_5*%
%TO.N,LED2*%
X137996000Y-89952500D03*
D14*
X137161000Y-89952500D03*
D13*
%TO.P,U1,6,P7_SCL_D5_6*%
%TO.N,LED3*%
X137996000Y-87412500D03*
D14*
X137161000Y-87412500D03*
D13*
%TO.P,U1,7,P0_D6_TX_7*%
%TO.N,unconnected-(U1-P0_D6_TX-Pad7)*%
X137996000Y-84872500D03*
D14*
X137161000Y-84872500D03*
%TO.P,U1,8,P1_D7_RX_8*%
%TO.N,unconnected-(U1-P1_D7_RX-Pad8)*%
X121921000Y-84872500D03*
D15*
X121086000Y-84872500D03*
D14*
%TO.P,U1,9,P2_D8_SCK_9*%
%TO.N,unconnected-(U1-P2_D8_SCK-Pad9)*%
X121921000Y-87412500D03*
D15*
X121086000Y-87412500D03*
D14*
%TO.P,U1,10,P4_D9_MISO_10*%
%TO.N,unconnected-(U1-P4_D9_MISO-Pad10)*%
X121921000Y-89952500D03*
D15*
X121086000Y-89952500D03*
D14*
%TO.P,U1,11,P3_D10_MOSI_11*%
%TO.N,unconnected-(U1-P3_D10_MOSI-Pad11)*%
X121921000Y-92492500D03*
D15*
X121086000Y-92492500D03*
D14*
%TO.P,U1,12,3V3_12*%
%TO.N,unconnected-(U1-3V3-Pad12)*%
X121921000Y-95032500D03*
D15*
X121086000Y-95032500D03*
D14*
%TO.P,U1,13,GND_13*%
%TO.N,GND*%
X121921000Y-97572500D03*
D15*
X121086000Y-97572500D03*
D14*
%TO.P,U1,14,VBUS_14*%
%TO.N,unconnected-(U1-VBUS-Pad14)*%
X121921000Y-100112500D03*
D15*
X121086000Y-100112500D03*
%TD*%
D16*
%TO.P,R3,1*%
%TO.N,Net-(D3-PadA)*%
X141670000Y-69340000D03*
%TO.P,R3,2*%
%TO.N,LED3*%
X141670000Y-74420000D03*
%TD*%
D10*
%TO.P,D3,A*%
%TO.N,Net-(D3-PadA)*%
X151559573Y-81340000D03*
D11*
%TO.P,D3,C*%
%TO.N,GND*%
X149019573Y-81340000D03*
%TD*%
D16*
%TO.P,R2,1*%
%TO.N,Net-(D2-PadA)*%
X129700000Y-66860000D03*
%TO.P,R2,2*%
%TO.N,LED2*%
X129700000Y-71940000D03*
%TD*%
%TO.P,R1,1*%
%TO.N,Net-(D1-PadA)*%
X118359572Y-69880000D03*
%TO.P,R1,2*%
%TO.N,LED1*%
X118359572Y-74960000D03*
%TD*%
%TO.N,Net-(D1-PadA)*%
D17*
X118359572Y-69880000D02*
X118359572Y-71680428D01*
X118359572Y-71680428D02*
X110580000Y-79460000D01*
%TO.N,GND*%
X127670000Y-58980000D02*
X108040000Y-78610000D01*
X108040000Y-84769130D02*
X108040000Y-79460000D01*
X121921000Y-97572500D02*
X120843370Y-97572500D01*
X125470000Y-101121500D02*
X125470000Y-113170000D01*
X125460000Y-154590000D02*
X125460000Y-134040000D01*
X149019573Y-78349573D02*
X129650000Y-58980000D01*
X125470000Y-133990000D02*
X125470000Y-113170000D01*
X121921000Y-97572500D02*
X125470000Y-101121500D01*
X149019573Y-81340000D02*
X149019573Y-78349573D01*
X125490000Y-134010000D02*
X125470000Y-133990000D01*
X120843370Y-97572500D02*
X108040000Y-84769130D01*
X108040000Y-78610000D02*
X108040000Y-79460000D01*
X125460000Y-134040000D02*
X125490000Y-134010000D01*
X129650000Y-58980000D02*
X127670000Y-58980000D01*
%TO.N,button1*%
X137161000Y-146699000D02*
X131810000Y-152050000D01*
X137161000Y-100112500D02*
X137161000Y-146699000D01*
X137161000Y-100112500D02*
X138238630Y-100112500D01*
%TO.N,Net-(D2-PadA)*%
X129650000Y-66810000D02*
X129700000Y-66860000D01*
X129650000Y-61520000D02*
X129650000Y-66810000D01*
%TO.N,button3*%
X131820000Y-100373500D02*
X131820000Y-110630000D01*
X137161000Y-95032500D02*
X131820000Y-100373500D01*
%TO.N,button2*%
X137161000Y-97572500D02*
X135560000Y-99173500D01*
X135560000Y-127750000D02*
X131840000Y-131470000D01*
X135560000Y-99173500D02*
X135560000Y-127750000D01*
X137161000Y-97572500D02*
X137773214Y-97572500D01*
%TO.N,LED1*%
X118359572Y-74960000D02*
X119628500Y-74960000D01*
X119628500Y-74960000D02*
X137161000Y-92492500D01*
%TO.N,LED2*%
X129700000Y-82491500D02*
X137161000Y-89952500D01*
X129700000Y-71940000D02*
X129700000Y-82491500D01*
%TO.N,LED3*%
X141670000Y-83515714D02*
X137773214Y-87412500D01*
X137773214Y-87412500D02*
X137161000Y-87412500D01*
X141670000Y-74420000D02*
X141670000Y-83515714D01*
%TO.N,Net-(D3-PadA)*%
X151559573Y-79229573D02*
X141670000Y-69340000D01*
X151559573Y-81340000D02*
X151559573Y-79229573D01*
%TD*%
M02*
