%TF.GenerationSoftware,KiCad,Pcbnew,10.0.0*%
%TF.CreationDate,2026-05-07T08:19:39-04:00*%
%TF.ProjectId,Pathfinder,50617468-6669-46e6-9465-722e6b696361,rev?*%
%TF.SameCoordinates,Original*%
%TF.FileFunction,Legend,Top*%
%TF.FilePolarity,Positive*%
%FSLAX46Y46*%
G04 Gerber Fmt 4.6, Leading zero omitted, Abs format (unit mm)*
G04 Created by KiCad (PCBNEW 10.0.0) date 2026-05-07 08:19:39*
%MOMM*%
%LPD*%
G01*
G04 APERTURE LIST*
%ADD10C,0.150000*%
%ADD11C,0.101600*%
%ADD12C,0.127000*%
%ADD13C,0.200000*%
%ADD14C,0.120000*%
%ADD15C,0.100000*%
%ADD16C,0.504000*%
G04 APERTURE END LIST*
D10*
X108759524Y-76114295D02*
X108759524Y-75314295D01*
X108759524Y-75314295D02*
X108950000Y-75314295D01*
X108950000Y-75314295D02*
X109064286Y-75352390D01*
X109064286Y-75352390D02*
X109140476Y-75428580D01*
X109140476Y-75428580D02*
X109178571Y-75504771D01*
X109178571Y-75504771D02*
X109216667Y-75657152D01*
X109216667Y-75657152D02*
X109216667Y-75771438D01*
X109216667Y-75771438D02*
X109178571Y-75923819D01*
X109178571Y-75923819D02*
X109140476Y-76000009D01*
X109140476Y-76000009D02*
X109064286Y-76076200D01*
X109064286Y-76076200D02*
X108950000Y-76114295D01*
X108950000Y-76114295D02*
X108759524Y-76114295D01*
X109978571Y-76114295D02*
X109521428Y-76114295D01*
X109750000Y-76114295D02*
X109750000Y-75314295D01*
X109750000Y-75314295D02*
X109673809Y-75428580D01*
X109673809Y-75428580D02*
X109597619Y-75504771D01*
X109597619Y-75504771D02*
X109521428Y-75542866D01*
X127936667Y-149663200D02*
X128079524Y-149710819D01*
X128079524Y-149710819D02*
X128317619Y-149710819D01*
X128317619Y-149710819D02*
X128412857Y-149663200D01*
X128412857Y-149663200D02*
X128460476Y-149615580D01*
X128460476Y-149615580D02*
X128508095Y-149520342D01*
X128508095Y-149520342D02*
X128508095Y-149425104D01*
X128508095Y-149425104D02*
X128460476Y-149329866D01*
X128460476Y-149329866D02*
X128412857Y-149282247D01*
X128412857Y-149282247D02*
X128317619Y-149234628D01*
X128317619Y-149234628D02*
X128127143Y-149187009D01*
X128127143Y-149187009D02*
X128031905Y-149139390D01*
X128031905Y-149139390D02*
X127984286Y-149091771D01*
X127984286Y-149091771D02*
X127936667Y-148996533D01*
X127936667Y-148996533D02*
X127936667Y-148901295D01*
X127936667Y-148901295D02*
X127984286Y-148806057D01*
X127984286Y-148806057D02*
X128031905Y-148758438D01*
X128031905Y-148758438D02*
X128127143Y-148710819D01*
X128127143Y-148710819D02*
X128365238Y-148710819D01*
X128365238Y-148710819D02*
X128508095Y-148758438D01*
X128841429Y-148710819D02*
X129079524Y-149710819D01*
X129079524Y-149710819D02*
X129270000Y-148996533D01*
X129270000Y-148996533D02*
X129460476Y-149710819D01*
X129460476Y-149710819D02*
X129698572Y-148710819D01*
X130603333Y-149710819D02*
X130031905Y-149710819D01*
X130317619Y-149710819D02*
X130317619Y-148710819D01*
X130317619Y-148710819D02*
X130222381Y-148853676D01*
X130222381Y-148853676D02*
X130127143Y-148948914D01*
X130127143Y-148948914D02*
X130031905Y-148996533D01*
X133720295Y-60880475D02*
X132920295Y-60880475D01*
X132920295Y-60880475D02*
X132920295Y-60689999D01*
X132920295Y-60689999D02*
X132958390Y-60575713D01*
X132958390Y-60575713D02*
X133034580Y-60499523D01*
X133034580Y-60499523D02*
X133110771Y-60461428D01*
X133110771Y-60461428D02*
X133263152Y-60423332D01*
X133263152Y-60423332D02*
X133377438Y-60423332D01*
X133377438Y-60423332D02*
X133529819Y-60461428D01*
X133529819Y-60461428D02*
X133606009Y-60499523D01*
X133606009Y-60499523D02*
X133682200Y-60575713D01*
X133682200Y-60575713D02*
X133720295Y-60689999D01*
X133720295Y-60689999D02*
X133720295Y-60880475D01*
X132996485Y-60118571D02*
X132958390Y-60080475D01*
X132958390Y-60080475D02*
X132920295Y-60004285D01*
X132920295Y-60004285D02*
X132920295Y-59813809D01*
X132920295Y-59813809D02*
X132958390Y-59737618D01*
X132958390Y-59737618D02*
X132996485Y-59699523D01*
X132996485Y-59699523D02*
X133072676Y-59661428D01*
X133072676Y-59661428D02*
X133148866Y-59661428D01*
X133148866Y-59661428D02*
X133263152Y-59699523D01*
X133263152Y-59699523D02*
X133720295Y-60156666D01*
X133720295Y-60156666D02*
X133720295Y-59661428D01*
X127946667Y-108243200D02*
X128089524Y-108290819D01*
X128089524Y-108290819D02*
X128327619Y-108290819D01*
X128327619Y-108290819D02*
X128422857Y-108243200D01*
X128422857Y-108243200D02*
X128470476Y-108195580D01*
X128470476Y-108195580D02*
X128518095Y-108100342D01*
X128518095Y-108100342D02*
X128518095Y-108005104D01*
X128518095Y-108005104D02*
X128470476Y-107909866D01*
X128470476Y-107909866D02*
X128422857Y-107862247D01*
X128422857Y-107862247D02*
X128327619Y-107814628D01*
X128327619Y-107814628D02*
X128137143Y-107767009D01*
X128137143Y-107767009D02*
X128041905Y-107719390D01*
X128041905Y-107719390D02*
X127994286Y-107671771D01*
X127994286Y-107671771D02*
X127946667Y-107576533D01*
X127946667Y-107576533D02*
X127946667Y-107481295D01*
X127946667Y-107481295D02*
X127994286Y-107386057D01*
X127994286Y-107386057D02*
X128041905Y-107338438D01*
X128041905Y-107338438D02*
X128137143Y-107290819D01*
X128137143Y-107290819D02*
X128375238Y-107290819D01*
X128375238Y-107290819D02*
X128518095Y-107338438D01*
X128851429Y-107290819D02*
X129089524Y-108290819D01*
X129089524Y-108290819D02*
X129280000Y-107576533D01*
X129280000Y-107576533D02*
X129470476Y-108290819D01*
X129470476Y-108290819D02*
X129708572Y-107290819D01*
X129994286Y-107290819D02*
X130613333Y-107290819D01*
X130613333Y-107290819D02*
X130280000Y-107671771D01*
X130280000Y-107671771D02*
X130422857Y-107671771D01*
X130422857Y-107671771D02*
X130518095Y-107719390D01*
X130518095Y-107719390D02*
X130565714Y-107767009D01*
X130565714Y-107767009D02*
X130613333Y-107862247D01*
X130613333Y-107862247D02*
X130613333Y-108100342D01*
X130613333Y-108100342D02*
X130565714Y-108195580D01*
X130565714Y-108195580D02*
X130518095Y-108243200D01*
X130518095Y-108243200D02*
X130422857Y-108290819D01*
X130422857Y-108290819D02*
X130137143Y-108290819D01*
X130137143Y-108290819D02*
X130041905Y-108243200D01*
X130041905Y-108243200D02*
X129994286Y-108195580D01*
X127966667Y-129083200D02*
X128109524Y-129130819D01*
X128109524Y-129130819D02*
X128347619Y-129130819D01*
X128347619Y-129130819D02*
X128442857Y-129083200D01*
X128442857Y-129083200D02*
X128490476Y-129035580D01*
X128490476Y-129035580D02*
X128538095Y-128940342D01*
X128538095Y-128940342D02*
X128538095Y-128845104D01*
X128538095Y-128845104D02*
X128490476Y-128749866D01*
X128490476Y-128749866D02*
X128442857Y-128702247D01*
X128442857Y-128702247D02*
X128347619Y-128654628D01*
X128347619Y-128654628D02*
X128157143Y-128607009D01*
X128157143Y-128607009D02*
X128061905Y-128559390D01*
X128061905Y-128559390D02*
X128014286Y-128511771D01*
X128014286Y-128511771D02*
X127966667Y-128416533D01*
X127966667Y-128416533D02*
X127966667Y-128321295D01*
X127966667Y-128321295D02*
X128014286Y-128226057D01*
X128014286Y-128226057D02*
X128061905Y-128178438D01*
X128061905Y-128178438D02*
X128157143Y-128130819D01*
X128157143Y-128130819D02*
X128395238Y-128130819D01*
X128395238Y-128130819D02*
X128538095Y-128178438D01*
X128871429Y-128130819D02*
X129109524Y-129130819D01*
X129109524Y-129130819D02*
X129300000Y-128416533D01*
X129300000Y-128416533D02*
X129490476Y-129130819D01*
X129490476Y-129130819D02*
X129728572Y-128130819D01*
X130061905Y-128226057D02*
X130109524Y-128178438D01*
X130109524Y-128178438D02*
X130204762Y-128130819D01*
X130204762Y-128130819D02*
X130442857Y-128130819D01*
X130442857Y-128130819D02*
X130538095Y-128178438D01*
X130538095Y-128178438D02*
X130585714Y-128226057D01*
X130585714Y-128226057D02*
X130633333Y-128321295D01*
X130633333Y-128321295D02*
X130633333Y-128416533D01*
X130633333Y-128416533D02*
X130585714Y-128559390D01*
X130585714Y-128559390D02*
X130014286Y-129130819D01*
X130014286Y-129130819D02*
X130633333Y-129130819D01*
D11*
X131466520Y-91896190D02*
X130952473Y-91896190D01*
X130952473Y-91896190D02*
X130891997Y-91926428D01*
X130891997Y-91926428D02*
X130861759Y-91956666D01*
X130861759Y-91956666D02*
X130831520Y-92017142D01*
X130831520Y-92017142D02*
X130831520Y-92138095D01*
X130831520Y-92138095D02*
X130861759Y-92198571D01*
X130861759Y-92198571D02*
X130891997Y-92228809D01*
X130891997Y-92228809D02*
X130952473Y-92259047D01*
X130952473Y-92259047D02*
X131466520Y-92259047D01*
X130831520Y-92894047D02*
X130831520Y-92531190D01*
X130831520Y-92712618D02*
X131466520Y-92712618D01*
X131466520Y-92712618D02*
X131375806Y-92652142D01*
X131375806Y-92652142D02*
X131315330Y-92591666D01*
X131315330Y-92591666D02*
X131285092Y-92531190D01*
D10*
X144044819Y-72046666D02*
X143568628Y-72379999D01*
X144044819Y-72618094D02*
X143044819Y-72618094D01*
X143044819Y-72618094D02*
X143044819Y-72237142D01*
X143044819Y-72237142D02*
X143092438Y-72141904D01*
X143092438Y-72141904D02*
X143140057Y-72094285D01*
X143140057Y-72094285D02*
X143235295Y-72046666D01*
X143235295Y-72046666D02*
X143378152Y-72046666D01*
X143378152Y-72046666D02*
X143473390Y-72094285D01*
X143473390Y-72094285D02*
X143521009Y-72141904D01*
X143521009Y-72141904D02*
X143568628Y-72237142D01*
X143568628Y-72237142D02*
X143568628Y-72618094D01*
X143044819Y-71713332D02*
X143044819Y-71094285D01*
X143044819Y-71094285D02*
X143425771Y-71427618D01*
X143425771Y-71427618D02*
X143425771Y-71284761D01*
X143425771Y-71284761D02*
X143473390Y-71189523D01*
X143473390Y-71189523D02*
X143521009Y-71141904D01*
X143521009Y-71141904D02*
X143616247Y-71094285D01*
X143616247Y-71094285D02*
X143854342Y-71094285D01*
X143854342Y-71094285D02*
X143949580Y-71141904D01*
X143949580Y-71141904D02*
X143997200Y-71189523D01*
X143997200Y-71189523D02*
X144044819Y-71284761D01*
X144044819Y-71284761D02*
X144044819Y-71570475D01*
X144044819Y-71570475D02*
X143997200Y-71665713D01*
X143997200Y-71665713D02*
X143949580Y-71713332D01*
X149789097Y-77912295D02*
X149789097Y-77112295D01*
X149789097Y-77112295D02*
X149979573Y-77112295D01*
X149979573Y-77112295D02*
X150093859Y-77150390D01*
X150093859Y-77150390D02*
X150170049Y-77226580D01*
X150170049Y-77226580D02*
X150208144Y-77302771D01*
X150208144Y-77302771D02*
X150246240Y-77455152D01*
X150246240Y-77455152D02*
X150246240Y-77569438D01*
X150246240Y-77569438D02*
X150208144Y-77721819D01*
X150208144Y-77721819D02*
X150170049Y-77798009D01*
X150170049Y-77798009D02*
X150093859Y-77874200D01*
X150093859Y-77874200D02*
X149979573Y-77912295D01*
X149979573Y-77912295D02*
X149789097Y-77912295D01*
X150512906Y-77112295D02*
X151008144Y-77112295D01*
X151008144Y-77112295D02*
X150741478Y-77417057D01*
X150741478Y-77417057D02*
X150855763Y-77417057D01*
X150855763Y-77417057D02*
X150931954Y-77455152D01*
X150931954Y-77455152D02*
X150970049Y-77493247D01*
X150970049Y-77493247D02*
X151008144Y-77569438D01*
X151008144Y-77569438D02*
X151008144Y-77759914D01*
X151008144Y-77759914D02*
X150970049Y-77836104D01*
X150970049Y-77836104D02*
X150931954Y-77874200D01*
X150931954Y-77874200D02*
X150855763Y-77912295D01*
X150855763Y-77912295D02*
X150627192Y-77912295D01*
X150627192Y-77912295D02*
X150551001Y-77874200D01*
X150551001Y-77874200D02*
X150512906Y-77836104D01*
X132074819Y-69566666D02*
X131598628Y-69899999D01*
X132074819Y-70138094D02*
X131074819Y-70138094D01*
X131074819Y-70138094D02*
X131074819Y-69757142D01*
X131074819Y-69757142D02*
X131122438Y-69661904D01*
X131122438Y-69661904D02*
X131170057Y-69614285D01*
X131170057Y-69614285D02*
X131265295Y-69566666D01*
X131265295Y-69566666D02*
X131408152Y-69566666D01*
X131408152Y-69566666D02*
X131503390Y-69614285D01*
X131503390Y-69614285D02*
X131551009Y-69661904D01*
X131551009Y-69661904D02*
X131598628Y-69757142D01*
X131598628Y-69757142D02*
X131598628Y-70138094D01*
X131170057Y-69185713D02*
X131122438Y-69138094D01*
X131122438Y-69138094D02*
X131074819Y-69042856D01*
X131074819Y-69042856D02*
X131074819Y-68804761D01*
X131074819Y-68804761D02*
X131122438Y-68709523D01*
X131122438Y-68709523D02*
X131170057Y-68661904D01*
X131170057Y-68661904D02*
X131265295Y-68614285D01*
X131265295Y-68614285D02*
X131360533Y-68614285D01*
X131360533Y-68614285D02*
X131503390Y-68661904D01*
X131503390Y-68661904D02*
X132074819Y-69233332D01*
X132074819Y-69233332D02*
X132074819Y-68614285D01*
X120734391Y-72586666D02*
X120258200Y-72919999D01*
X120734391Y-73158094D02*
X119734391Y-73158094D01*
X119734391Y-73158094D02*
X119734391Y-72777142D01*
X119734391Y-72777142D02*
X119782010Y-72681904D01*
X119782010Y-72681904D02*
X119829629Y-72634285D01*
X119829629Y-72634285D02*
X119924867Y-72586666D01*
X119924867Y-72586666D02*
X120067724Y-72586666D01*
X120067724Y-72586666D02*
X120162962Y-72634285D01*
X120162962Y-72634285D02*
X120210581Y-72681904D01*
X120210581Y-72681904D02*
X120258200Y-72777142D01*
X120258200Y-72777142D02*
X120258200Y-73158094D01*
X120734391Y-71634285D02*
X120734391Y-72205713D01*
X120734391Y-71919999D02*
X119734391Y-71919999D01*
X119734391Y-71919999D02*
X119877248Y-72015237D01*
X119877248Y-72015237D02*
X119972486Y-72110475D01*
X119972486Y-72110475D02*
X120020105Y-72205713D01*
%TO.C,D1*%
D12*
X106810000Y-77894000D02*
X106810000Y-81026000D01*
X106810000Y-77894000D02*
G75*
G02*
X106810000Y-81026000I2506124J-1566000D01*
G01*
D13*
X106210000Y-79460000D02*
G75*
G02*
X106010000Y-79460000I-100000J0D01*
G01*
X106010000Y-79460000D02*
G75*
G02*
X106210000Y-79460000I100000J0D01*
G01*
%TO.C,SW1*%
D14*
X122285000Y-150145000D02*
X136255000Y-150145000D01*
X122285000Y-164115000D02*
X122285000Y-150145000D01*
X136255000Y-150145000D02*
X136255000Y-164115000D01*
X136255000Y-164115000D02*
X122285000Y-164115000D01*
%TO.C,D2*%
D12*
X131216000Y-57750000D02*
X128084000Y-57750000D01*
X131216000Y-57750000D02*
G75*
G02*
X128084000Y-57750000I-1566000J-2506124D01*
G01*
D13*
X129750000Y-57050000D02*
G75*
G02*
X129550000Y-57050000I-100000J0D01*
G01*
X129550000Y-57050000D02*
G75*
G02*
X129750000Y-57050000I100000J0D01*
G01*
%TO.C,SW3*%
D14*
X122295000Y-108725000D02*
X136265000Y-108725000D01*
X122295000Y-122695000D02*
X122295000Y-108725000D01*
X136265000Y-108725000D02*
X136265000Y-122695000D01*
X136265000Y-122695000D02*
X122295000Y-122695000D01*
%TO.C,SW2*%
X122315000Y-129565000D02*
X136285000Y-129565000D01*
X122315000Y-143535000D02*
X122315000Y-129565000D01*
X136285000Y-129565000D02*
X136285000Y-143535000D01*
X136285000Y-143535000D02*
X122315000Y-143535000D01*
%TO.C,U1*%
D12*
X120651000Y-83983500D02*
X120651000Y-101128500D01*
D15*
X122556000Y-103033500D02*
X136526000Y-103033500D01*
D12*
X122556000Y-103033500D02*
X136526000Y-103033500D01*
X125037000Y-103943500D02*
X125037000Y-103033500D01*
X133532272Y-104443500D02*
X125537000Y-104443500D01*
X134036000Y-103033500D02*
X134032272Y-103943772D01*
X136526000Y-82078500D02*
X122556000Y-82078500D01*
X138431000Y-83983500D02*
X138431000Y-101128500D01*
X120651000Y-83983500D02*
G75*
G02*
X122556000Y-82078500I1905001J-1D01*
G01*
X122556000Y-103033500D02*
G75*
G02*
X120651000Y-101128500I0J1905000D01*
G01*
X125537000Y-104443500D02*
G75*
G02*
X125037000Y-103943500I0J500000D01*
G01*
X134032272Y-103943772D02*
G75*
G02*
X133532272Y-104443472I-499972J272D01*
G01*
X136526000Y-82078500D02*
G75*
G02*
X138431000Y-83983500I-1J-1905001D01*
G01*
X138431000Y-101128500D02*
G75*
G02*
X136526000Y-103033500I-1905000J0D01*
G01*
D16*
X137600000Y-101912500D02*
G75*
G02*
X137096000Y-101912500I-252000J0D01*
G01*
X137096000Y-101912500D02*
G75*
G02*
X137600000Y-101912500I252000J0D01*
G01*
X138743000Y-102792500D02*
G75*
G02*
X138239000Y-102792500I-252000J0D01*
G01*
X138239000Y-102792500D02*
G75*
G02*
X138743000Y-102792500I252000J0D01*
G01*
%TO.C,R3*%
D14*
X140750000Y-69960000D02*
X140750000Y-73800000D01*
X142590000Y-69960000D02*
X142590000Y-73800000D01*
%TO.C,D3*%
D12*
X147789573Y-79774000D02*
X147789573Y-82906000D01*
X147789573Y-79774000D02*
G75*
G02*
X147789573Y-82906000I2506124J-1566000D01*
G01*
D13*
X147189573Y-81340000D02*
G75*
G02*
X146989573Y-81340000I-100000J0D01*
G01*
X146989573Y-81340000D02*
G75*
G02*
X147189573Y-81340000I100000J0D01*
G01*
%TO.C,R2*%
D14*
X128780000Y-67480000D02*
X128780000Y-71320000D01*
X130620000Y-67480000D02*
X130620000Y-71320000D01*
%TO.C,R1*%
X117439572Y-70500000D02*
X117439572Y-74340000D01*
X119279572Y-70500000D02*
X119279572Y-74340000D01*
%TD*%
M02*
