%TF.GenerationSoftware,KiCad,Pcbnew,10.0.0*%
%TF.CreationDate,2026-05-07T08:19:39-04:00*%
%TF.ProjectId,Pathfinder,50617468-6669-46e6-9465-722e6b696361,rev?*%
%TF.SameCoordinates,Original*%
%TF.FileFunction,Soldermask,Top*%
%TF.FilePolarity,Negative*%
%FSLAX46Y46*%
G04 Gerber Fmt 4.6, Leading zero omitted, Abs format (unit mm)*
G04 Created by KiCad (PCBNEW 10.0.0) date 2026-05-07 08:19:39*
%MOMM*%
%LPD*%
G01*
G04 APERTURE LIST*
G04 Aperture macros list*
%AMRoundRect*
0 Rectangle with rounded corners*
0 $1 Rounding radius*
0 $2 $3 $4 $5 $6 $7 $8 $9 X,Y pos of 4 corners*
0 Add a 4 corners polygon primitive as box body*
4,1,4,$2,$3,$4,$5,$6,$7,$8,$9,$2,$3,0*
0 Add four circle primitives for the rounded corners*
1,1,$1+$1,$2,$3*
1,1,$1+$1,$4,$5*
1,1,$1+$1,$6,$7*
1,1,$1+$1,$8,$9*
0 Add four rect primitives between the rounded corners*
20,1,$1+$1,$2,$3,$4,$5,0*
20,1,$1+$1,$4,$5,$6,$7,0*
20,1,$1+$1,$6,$7,$8,$9,0*
20,1,$1+$1,$8,$9,$2,$3,0*%
G04 Aperture macros list end*
%ADD10C,2.019000*%
%ADD11RoundRect,0.102000X-0.907500X-0.907500X0.907500X-0.907500X0.907500X0.907500X-0.907500X0.907500X0*%
%ADD12C,1.700000*%
%ADD13C,4.000000*%
%ADD14C,2.200000*%
%ADD15RoundRect,0.102000X-0.907500X0.907500X-0.907500X-0.907500X0.907500X-0.907500X0.907500X0.907500X0*%
%ADD16RoundRect,0.152400X-1.063600X-0.609600X1.063600X-0.609600X1.063600X0.609600X-1.063600X0.609600X0*%
%ADD17C,1.524000*%
%ADD18RoundRect,0.152400X1.063600X0.609600X-1.063600X0.609600X-1.063600X-0.609600X1.063600X-0.609600X0*%
%ADD19C,1.400000*%
G04 APERTURE END LIST*
D10*
%TO.C,D1*%
X110580000Y-79460000D03*
D11*
X108040000Y-79460000D03*
%TD*%
D12*
%TO.C,SW1*%
X124190000Y-157130000D03*
D13*
X129270000Y-157130000D03*
D12*
X134350000Y-157130000D03*
D14*
X131810000Y-152050000D03*
X125460000Y-154590000D03*
%TD*%
D10*
%TO.C,D2*%
X129650000Y-61520000D03*
D15*
X129650000Y-58980000D03*
%TD*%
D12*
%TO.C,SW3*%
X124200000Y-115710000D03*
D13*
X129280000Y-115710000D03*
D12*
X134360000Y-115710000D03*
D14*
X131820000Y-110630000D03*
X125470000Y-113170000D03*
%TD*%
D12*
%TO.C,SW2*%
X124220000Y-136550000D03*
D13*
X129300000Y-136550000D03*
D12*
X134380000Y-136550000D03*
D14*
X131840000Y-131470000D03*
X125490000Y-134010000D03*
%TD*%
D16*
%TO.C,U1*%
X137996000Y-100112500D03*
D17*
X137161000Y-100112500D03*
D16*
X137996000Y-97572500D03*
D17*
X137161000Y-97572500D03*
D16*
X137996000Y-95032500D03*
D17*
X137161000Y-95032500D03*
D16*
X137996000Y-92492500D03*
D17*
X137161000Y-92492500D03*
D16*
X137996000Y-89952500D03*
D17*
X137161000Y-89952500D03*
D16*
X137996000Y-87412500D03*
D17*
X137161000Y-87412500D03*
D16*
X137996000Y-84872500D03*
D17*
X137161000Y-84872500D03*
X121921000Y-84872500D03*
D18*
X121086000Y-84872500D03*
D17*
X121921000Y-87412500D03*
D18*
X121086000Y-87412500D03*
D17*
X121921000Y-89952500D03*
D18*
X121086000Y-89952500D03*
D17*
X121921000Y-92492500D03*
D18*
X121086000Y-92492500D03*
D17*
X121921000Y-95032500D03*
D18*
X121086000Y-95032500D03*
D17*
X121921000Y-97572500D03*
D18*
X121086000Y-97572500D03*
D17*
X121921000Y-100112500D03*
D18*
X121086000Y-100112500D03*
%TD*%
D19*
%TO.C,R3*%
X141670000Y-69340000D03*
X141670000Y-74420000D03*
%TD*%
D10*
%TO.C,D3*%
X151559573Y-81340000D03*
D11*
X149019573Y-81340000D03*
%TD*%
D19*
%TO.C,R2*%
X129700000Y-66860000D03*
X129700000Y-71940000D03*
%TD*%
%TO.C,R1*%
X118359572Y-69880000D03*
X118359572Y-74960000D03*
%TD*%
M02*
